<mxfile host="app.diagrams.net" modified="2022-09-03T02:15:17.730Z" agent="5.0 (Windows NT 10.0; Win64; x64) AppleWebKit/537.36 (KHTML, like Gecko) Chrome/104.0.0.0 Safari/537.36" etag="IIhdc3ns5PXSjFe0RO0b" version="20.2.7" type="github">
  <diagram id="C5RBs43oDa-KdzZeNtuy" name="Page-1">
    <mxGraphModel dx="1157" dy="600" grid="1" gridSize="10" guides="1" tooltips="1" connect="1" arrows="1" fold="1" page="1" pageScale="1" pageWidth="827" pageHeight="1169" math="0" shadow="0">
      <root>
        <mxCell id="WIyWlLk6GJQsqaUBKTNV-0" />
        <mxCell id="WIyWlLk6GJQsqaUBKTNV-1" parent="WIyWlLk6GJQsqaUBKTNV-0" />
        <mxCell id="WIyWlLk6GJQsqaUBKTNV-6" value="¿Tengo examen?" style="rhombus;whiteSpace=wrap;html=1;shadow=0;fontFamily=Helvetica;fontSize=12;align=center;strokeWidth=1;spacing=6;spacingTop=-4;" parent="WIyWlLk6GJQsqaUBKTNV-1" vertex="1">
          <mxGeometry x="140" y="170" width="130" height="80" as="geometry" />
        </mxCell>
        <mxCell id="WIyWlLk6GJQsqaUBKTNV-12" value="Investigo el tema" style="rounded=1;whiteSpace=wrap;html=1;fontSize=12;glass=0;strokeWidth=1;shadow=0;" parent="WIyWlLk6GJQsqaUBKTNV-1" vertex="1">
          <mxGeometry x="345" y="300" width="120" height="40" as="geometry" />
        </mxCell>
        <mxCell id="ZT2JAAHRPx5lNq9yUyJW-3" value="" style="endArrow=classic;html=1;rounded=0;" edge="1" parent="WIyWlLk6GJQsqaUBKTNV-1">
          <mxGeometry relative="1" as="geometry">
            <mxPoint x="270" y="210" as="sourcePoint" />
            <mxPoint x="340" y="210" as="targetPoint" />
          </mxGeometry>
        </mxCell>
        <mxCell id="ZT2JAAHRPx5lNq9yUyJW-4" value="Sí" style="edgeLabel;resizable=0;html=1;align=center;verticalAlign=middle;" connectable="0" vertex="1" parent="ZT2JAAHRPx5lNq9yUyJW-3">
          <mxGeometry relative="1" as="geometry">
            <mxPoint y="1" as="offset" />
          </mxGeometry>
        </mxCell>
        <mxCell id="ZT2JAAHRPx5lNq9yUyJW-5" value="¿Conozco el tema?" style="rhombus;whiteSpace=wrap;html=1;shadow=0;fontFamily=Helvetica;fontSize=12;align=center;strokeWidth=1;spacing=6;spacingTop=-4;" vertex="1" parent="WIyWlLk6GJQsqaUBKTNV-1">
          <mxGeometry x="340" y="170" width="130" height="80" as="geometry" />
        </mxCell>
        <mxCell id="ZT2JAAHRPx5lNq9yUyJW-7" value="" style="endArrow=classic;html=1;rounded=0;" edge="1" parent="WIyWlLk6GJQsqaUBKTNV-1">
          <mxGeometry relative="1" as="geometry">
            <mxPoint x="140" y="209.5" as="sourcePoint" />
            <mxPoint x="70" y="210" as="targetPoint" />
          </mxGeometry>
        </mxCell>
        <mxCell id="ZT2JAAHRPx5lNq9yUyJW-8" value="No" style="edgeLabel;resizable=0;html=1;align=center;verticalAlign=middle;" connectable="0" vertex="1" parent="ZT2JAAHRPx5lNq9yUyJW-7">
          <mxGeometry relative="1" as="geometry">
            <mxPoint as="offset" />
          </mxGeometry>
        </mxCell>
        <mxCell id="ZT2JAAHRPx5lNq9yUyJW-9" value="" style="endArrow=classic;html=1;rounded=0;" edge="1" parent="WIyWlLk6GJQsqaUBKTNV-1">
          <mxGeometry relative="1" as="geometry">
            <mxPoint x="470" y="209.5" as="sourcePoint" />
            <mxPoint x="540" y="209.5" as="targetPoint" />
          </mxGeometry>
        </mxCell>
        <mxCell id="ZT2JAAHRPx5lNq9yUyJW-10" value="Sí" style="edgeLabel;resizable=0;html=1;align=center;verticalAlign=middle;" connectable="0" vertex="1" parent="ZT2JAAHRPx5lNq9yUyJW-9">
          <mxGeometry relative="1" as="geometry">
            <mxPoint y="1" as="offset" />
          </mxGeometry>
        </mxCell>
        <mxCell id="ZT2JAAHRPx5lNq9yUyJW-11" value="" style="endArrow=classic;html=1;rounded=0;" edge="1" parent="WIyWlLk6GJQsqaUBKTNV-1">
          <mxGeometry relative="1" as="geometry">
            <mxPoint x="400" y="249" as="sourcePoint" />
            <mxPoint x="400" y="300" as="targetPoint" />
          </mxGeometry>
        </mxCell>
        <mxCell id="ZT2JAAHRPx5lNq9yUyJW-12" value="No" style="edgeLabel;resizable=0;html=1;align=center;verticalAlign=middle;" connectable="0" vertex="1" parent="ZT2JAAHRPx5lNq9yUyJW-11">
          <mxGeometry relative="1" as="geometry">
            <mxPoint as="offset" />
          </mxGeometry>
        </mxCell>
        <mxCell id="ZT2JAAHRPx5lNq9yUyJW-14" value="" style="endArrow=classic;html=1;rounded=0;" edge="1" parent="WIyWlLk6GJQsqaUBKTNV-1">
          <mxGeometry width="50" height="50" relative="1" as="geometry">
            <mxPoint x="400" y="340" as="sourcePoint" />
            <mxPoint x="400" y="370" as="targetPoint" />
          </mxGeometry>
        </mxCell>
        <mxCell id="ZT2JAAHRPx5lNq9yUyJW-20" value="" style="edgeStyle=orthogonalEdgeStyle;rounded=0;orthogonalLoop=1;jettySize=auto;html=1;" edge="1" parent="WIyWlLk6GJQsqaUBKTNV-1">
          <mxGeometry relative="1" as="geometry">
            <mxPoint x="400" y="410" as="sourcePoint" />
            <mxPoint x="400" y="430" as="targetPoint" />
          </mxGeometry>
        </mxCell>
        <mxCell id="ZT2JAAHRPx5lNq9yUyJW-15" value="Preparo el material" style="rounded=1;whiteSpace=wrap;html=1;fontSize=12;glass=0;strokeWidth=1;shadow=0;" vertex="1" parent="WIyWlLk6GJQsqaUBKTNV-1">
          <mxGeometry x="345" y="370" width="120" height="40" as="geometry" />
        </mxCell>
        <mxCell id="ZT2JAAHRPx5lNq9yUyJW-23" value="" style="edgeStyle=orthogonalEdgeStyle;rounded=0;orthogonalLoop=1;jettySize=auto;html=1;" edge="1" parent="WIyWlLk6GJQsqaUBKTNV-1">
          <mxGeometry relative="1" as="geometry">
            <mxPoint x="401" y="470" as="sourcePoint" />
            <mxPoint x="401" y="500" as="targetPoint" />
          </mxGeometry>
        </mxCell>
        <mxCell id="ZT2JAAHRPx5lNq9yUyJW-16" value="Aclaro dudas" style="rounded=1;whiteSpace=wrap;html=1;fontSize=12;glass=0;strokeWidth=1;shadow=0;" vertex="1" parent="WIyWlLk6GJQsqaUBKTNV-1">
          <mxGeometry x="345" y="430" width="120" height="40" as="geometry" />
        </mxCell>
        <mxCell id="ZT2JAAHRPx5lNq9yUyJW-24" value="¿Te sientes listo?" style="rhombus;whiteSpace=wrap;html=1;shadow=0;fontFamily=Helvetica;fontSize=12;align=center;strokeWidth=1;spacing=6;spacingTop=-4;" vertex="1" parent="WIyWlLk6GJQsqaUBKTNV-1">
          <mxGeometry x="335" y="570" width="130" height="80" as="geometry" />
        </mxCell>
        <mxCell id="ZT2JAAHRPx5lNq9yUyJW-25" value="" style="endArrow=classic;html=1;rounded=0;" edge="1" parent="WIyWlLk6GJQsqaUBKTNV-1">
          <mxGeometry relative="1" as="geometry">
            <mxPoint x="465" y="609.5" as="sourcePoint" />
            <mxPoint x="535" y="609.5" as="targetPoint" />
          </mxGeometry>
        </mxCell>
        <mxCell id="ZT2JAAHRPx5lNq9yUyJW-26" value="Sí" style="edgeLabel;resizable=0;html=1;align=center;verticalAlign=middle;" connectable="0" vertex="1" parent="ZT2JAAHRPx5lNq9yUyJW-25">
          <mxGeometry relative="1" as="geometry">
            <mxPoint y="1" as="offset" />
          </mxGeometry>
        </mxCell>
        <mxCell id="ZT2JAAHRPx5lNq9yUyJW-27" value="" style="endArrow=classic;html=1;rounded=0;" edge="1" parent="WIyWlLk6GJQsqaUBKTNV-1">
          <mxGeometry relative="1" as="geometry">
            <mxPoint x="335" y="609.5" as="sourcePoint" />
            <mxPoint x="265" y="610" as="targetPoint" />
          </mxGeometry>
        </mxCell>
        <mxCell id="ZT2JAAHRPx5lNq9yUyJW-28" value="No" style="edgeLabel;resizable=0;html=1;align=center;verticalAlign=middle;" connectable="0" vertex="1" parent="ZT2JAAHRPx5lNq9yUyJW-27">
          <mxGeometry relative="1" as="geometry">
            <mxPoint as="offset" />
          </mxGeometry>
        </mxCell>
        <mxCell id="ZT2JAAHRPx5lNq9yUyJW-29" value="" style="endArrow=classic;html=1;rounded=0;entryX=0;entryY=0.5;entryDx=0;entryDy=0;" edge="1" parent="WIyWlLk6GJQsqaUBKTNV-1" target="ZT2JAAHRPx5lNq9yUyJW-16">
          <mxGeometry width="50" height="50" relative="1" as="geometry">
            <mxPoint x="265" y="540" as="sourcePoint" />
            <mxPoint x="265" y="390" as="targetPoint" />
            <Array as="points">
              <mxPoint x="265" y="610" />
              <mxPoint x="265" y="540" />
              <mxPoint x="265" y="450" />
            </Array>
          </mxGeometry>
        </mxCell>
        <mxCell id="ZT2JAAHRPx5lNq9yUyJW-30" value="" style="endArrow=classic;html=1;rounded=0;entryX=1;entryY=0.5;entryDx=0;entryDy=0;" edge="1" parent="WIyWlLk6GJQsqaUBKTNV-1" target="ZT2JAAHRPx5lNq9yUyJW-16">
          <mxGeometry width="50" height="50" relative="1" as="geometry">
            <mxPoint x="540" y="210" as="sourcePoint" />
            <mxPoint x="540" y="400" as="targetPoint" />
            <Array as="points">
              <mxPoint x="540" y="450" />
            </Array>
          </mxGeometry>
        </mxCell>
        <mxCell id="ZT2JAAHRPx5lNq9yUyJW-31" value="Más práctica" style="rounded=1;whiteSpace=wrap;html=1;fontSize=12;glass=0;strokeWidth=1;shadow=0;" vertex="1" parent="WIyWlLk6GJQsqaUBKTNV-1">
          <mxGeometry x="345" y="500" width="120" height="40" as="geometry" />
        </mxCell>
        <mxCell id="ZT2JAAHRPx5lNq9yUyJW-34" value="" style="endArrow=classic;html=1;rounded=0;" edge="1" parent="WIyWlLk6GJQsqaUBKTNV-1">
          <mxGeometry width="50" height="50" relative="1" as="geometry">
            <mxPoint x="400" y="540" as="sourcePoint" />
            <mxPoint x="400" y="570" as="targetPoint" />
          </mxGeometry>
        </mxCell>
        <mxCell id="ZT2JAAHRPx5lNq9yUyJW-35" value="" style="endArrow=classic;html=1;rounded=0;" edge="1" parent="WIyWlLk6GJQsqaUBKTNV-1">
          <mxGeometry width="50" height="50" relative="1" as="geometry">
            <mxPoint x="530" y="610" as="sourcePoint" />
            <mxPoint x="370" y="710" as="targetPoint" />
            <Array as="points">
              <mxPoint x="530" y="710" />
            </Array>
          </mxGeometry>
        </mxCell>
        <mxCell id="ZT2JAAHRPx5lNq9yUyJW-36" value="" style="endArrow=classic;html=1;rounded=0;" edge="1" parent="WIyWlLk6GJQsqaUBKTNV-1">
          <mxGeometry width="50" height="50" relative="1" as="geometry">
            <mxPoint x="70" y="210" as="sourcePoint" />
            <mxPoint x="240" y="710" as="targetPoint" />
            <Array as="points">
              <mxPoint x="70" y="710" />
            </Array>
          </mxGeometry>
        </mxCell>
        <mxCell id="ZT2JAAHRPx5lNq9yUyJW-37" value="&lt;br&gt;&lt;span style=&quot;color: rgb(0, 0, 0); font-family: Helvetica; font-size: 12px; font-style: normal; font-variant-ligatures: normal; font-variant-caps: normal; font-weight: 400; letter-spacing: normal; orphans: 2; text-align: center; text-indent: 0px; text-transform: none; widows: 2; word-spacing: 0px; -webkit-text-stroke-width: 0px; background-color: rgb(248, 249, 250); text-decoration-thickness: initial; text-decoration-style: initial; text-decoration-color: initial; float: none; display: inline !important;&quot;&gt;Estudiar para un examen&lt;/span&gt;" style="ellipse;whiteSpace=wrap;html=1;" vertex="1" parent="WIyWlLk6GJQsqaUBKTNV-1">
          <mxGeometry x="145" y="80" width="120" height="60" as="geometry" />
        </mxCell>
        <mxCell id="ZT2JAAHRPx5lNq9yUyJW-38" value="FIN" style="ellipse;whiteSpace=wrap;html=1;" vertex="1" parent="WIyWlLk6GJQsqaUBKTNV-1">
          <mxGeometry x="245" y="685" width="120" height="50" as="geometry" />
        </mxCell>
        <mxCell id="ZT2JAAHRPx5lNq9yUyJW-39" value="" style="endArrow=classic;html=1;rounded=0;" edge="1" parent="WIyWlLk6GJQsqaUBKTNV-1">
          <mxGeometry width="50" height="50" relative="1" as="geometry">
            <mxPoint x="205" y="140" as="sourcePoint" />
            <mxPoint x="204.73684210526312" y="171.68421052631584" as="targetPoint" />
          </mxGeometry>
        </mxCell>
      </root>
    </mxGraphModel>
  </diagram>
</mxfile>
